<svg width="164" height="39" viewBox="0 0 164 39" fill="none" xmlns="http://www.w3.org/2000/svg">
<path d="M34.3466 18.9659C34.3466 20.8693 33.9858 22.4886 33.2642 23.8239C32.5483 25.1591 31.571 26.179 30.3324 26.8835C29.0994 27.5824 27.7131 27.9318 26.1733 27.9318C24.6222 27.9318 23.2301 27.5796 21.9972 26.875C20.7642 26.1705 19.7898 25.1506 19.0739 23.8153C18.358 22.4801 18 20.8636 18 18.9659C18 17.0625 18.358 15.4432 19.0739 14.108C19.7898 12.7727 20.7642 11.7557 21.9972 11.0568C23.2301 10.3523 24.6222 10 26.1733 10C27.7131 10 29.0994 10.3523 30.3324 11.0568C31.571 11.7557 32.5483 12.7727 33.2642 14.108C33.9858 15.4432 34.3466 17.0625 34.3466 18.9659ZM30.6051 18.9659C30.6051 17.733 30.4205 16.6932 30.0511 15.8466C29.6875 15 29.1733 14.358 28.5085 13.9205C27.8438 13.483 27.0653 13.2642 26.1733 13.2642C25.2813 13.2642 24.5028 13.483 23.8381 13.9205C23.1733 14.358 22.6563 15 22.2869 15.8466C21.9233 16.6932 21.7415 17.733 21.7415 18.9659C21.7415 20.1989 21.9233 21.2386 22.2869 22.0852C22.6563 22.9318 23.1733 23.5739 23.8381 24.0114C24.5028 24.4489 25.2813 24.6676 26.1733 24.6676C27.0653 24.6676 27.8438 24.4489 28.5085 24.0114C29.1733 23.5739 29.6875 22.9318 30.0511 22.0852C30.4205 21.2386 30.6051 20.1989 30.6051 18.9659Z" fill="#F5F5F5"/>
<path d="M43.2678 27.6932H37.0803V10.2386H43.3189C45.0746 10.2386 46.586 10.5881 47.853 11.2869C49.12 11.9801 50.0945 12.9773 50.7763 14.2784C51.4638 15.5795 51.8075 17.1364 51.8075 18.9489C51.8075 20.7671 51.4638 22.3296 50.7763 23.6364C50.0945 24.9432 49.1144 25.946 47.836 26.6449C46.5632 27.3438 45.0405 27.6932 43.2678 27.6932ZM40.7706 24.5313H43.1144C44.2053 24.5313 45.1229 24.3381 45.8672 23.9517C46.6172 23.5597 47.1797 22.9546 47.5547 22.1364C47.9354 21.3125 48.1257 20.25 48.1257 18.9489C48.1257 17.6591 47.9354 16.6051 47.5547 15.7869C47.1797 14.9688 46.62 14.3665 45.8757 13.9801C45.1314 13.5938 44.2138 13.4006 43.1229 13.4006H40.7706V24.5313Z" fill="#F5F5F5"/>
<path d="M54.5412 27.6932V10.2386H66.3026V13.2813H58.2316V17.4403H65.6975V20.483H58.2316V24.6506H66.3367V27.6932H54.5412Z" fill="#F5F5F5"/>
<path d="M93.6904 10V27.4546H90.0001V10H93.6904Z" fill="#F5F5F5"/>
<path d="M100.187 10L103.707 15.9489H103.843L107.38 10H111.548L106.221 18.7273L111.667 27.4546H107.423L103.843 21.4972H103.707L100.127 27.4546H95.8999L101.363 18.7273L96.0022 10H100.187Z" fill="#F5F5F5"/>
<path d="M15.7074 16.3496L9 17C8.93182 16.517 11.7671 15.4377 11.5568 15.0627C11.3466 14.682 11.0767 14.3581 10.7472 14.0911C10.4176 13.8241 10.0369 13.6195 9.60512 13.4775C9.17899 13.3354 8.71592 13.2644 8.21592 13.2644C7.31251 13.2644 6.52557 13.4888 5.85512 13.9377C5.18466 14.3809 4.66478 15.0286 4.29546 15.8809C3.92614 16.7275 3.74148 17.7559 3.74148 18.9661C3.74148 20.2104 3.92614 21.2559 4.29546 22.1025C4.67046 22.9491 5.19318 23.5883 5.86364 24.0201C6.5341 24.4519 7.30967 24.6678 8.19035 24.6678C8.68467 24.6678 9.14206 24.6025 9.56251 24.4718C9.98865 24.3411 10.3665 24.1508 10.696 23.9008C11.0256 23.6451 11.2983 23.3354 11.5142 22.9718C11.7358 22.6081 11.8892 22.1934 11.9744 21.7275L15.7074 21.7445C15.6108 22.5456 15.3693 23.3184 14.983 24.0627C14.6023 24.8013 14.0881 25.4633 13.4404 26.0485C12.7983 26.628 12.0313 27.0883 11.1392 27.4292C10.2528 27.7644 9.25001 27.932 8.13069 27.932C6.57387 27.932 5.18182 27.5797 3.95455 26.8752C2.73296 26.1706 1.76705 25.1508 1.05682 23.8155C0.352273 22.4803 0 20.8638 0 18.9661C0 17.0627 0.357954 15.4434 1.07386 14.1081C1.78977 12.7729 2.76136 11.7559 3.98864 11.057C5.21591 10.3525 6.5966 10.0002 8.13069 10.0002C9.14206 10.0002 10.0796 10.1422 10.9432 10.4263C11.8125 10.7104 12.5824 11.1252 13.2529 11.6706C13.9233 12.2104 14.4688 12.8723 14.8892 13.6564C15.3154 14.4405 15.5881 15.3383 15.7074 16.3496Z" fill="#F55431"/>
<path d="M97.7689 1.50417e-05L82.7282 10.5251L84.3947 27.4433L81.3528 27.7429L72.9953 17.1822L72.8733 17.1942L73.9839 28.4688L52.8429 33.5657L70.266 26.8253L68.6976 10.9023L71.7883 10.5979L80.0879 21.1555L80.2343 21.141L79.1246 9.87525L97.7689 1.50417e-05Z" fill="#F55431"/>
<path d="M118.287 10L121.807 15.9489H121.943L125.48 10H129.648L124.321 18.7273L130 27L164 39L125.523 27.4546L121.943 21.4972H121.807L118.227 27.4546H114L119.463 18.7273L114.102 10H118.287Z" fill="#F55431"/>
</svg>
