<svg width="86" height="52" viewBox="0 0 86 52" fill="none" xmlns="http://www.w3.org/2000/svg">
<path d="M27.4717 25.7447H21.1421C21.0265 24.9258 20.7904 24.1984 20.434 23.5626C20.0775 22.9171 19.6199 22.368 19.0611 21.9152C18.5023 21.4624 17.8568 21.1155 17.1246 20.8747C16.4021 20.6338 15.6169 20.5134 14.7691 20.5134C13.2373 20.5134 11.903 20.894 10.7661 21.655C9.6293 22.4065 8.74778 23.5048 8.12157 24.9499C7.49535 26.3854 7.18224 28.1292 7.18224 30.1812C7.18224 32.2911 7.49535 34.0638 8.12157 35.4993C8.75742 36.9347 9.64375 38.0186 10.7806 38.7508C11.9174 39.483 13.2325 39.8491 14.7257 39.8491C15.5639 39.8491 16.3395 39.7383 17.0524 39.5167C17.7749 39.2951 18.4156 38.9724 18.9744 38.5485C19.5332 38.1149 19.9956 37.5899 20.3617 36.9733C20.7374 36.3567 20.9976 35.6534 21.1421 34.8634L27.4717 34.8923C27.3079 36.2507 26.8984 37.561 26.2433 38.823C25.5978 40.0755 24.726 41.1978 23.6277 42.1901C22.539 43.1728 21.2384 43.9532 19.7258 44.5312C18.2229 45.0996 16.5225 45.3838 14.6246 45.3838C11.9848 45.3838 9.62449 44.7865 7.54352 43.5919C5.47219 42.3973 3.83439 40.668 2.63012 38.4039C1.4355 36.1399 0.838181 33.399 0.838181 30.1812C0.838181 26.9538 1.44513 24.2081 2.65903 21.9441C3.87292 19.6801 5.52036 17.9555 7.60132 16.7706C9.68229 15.5759 12.0234 14.9786 14.6246 14.9786C16.3395 14.9786 17.9291 15.2195 19.3935 15.7012C20.8675 16.1829 22.1729 16.8862 23.3097 17.811C24.4466 18.7263 25.3714 19.8486 26.0844 21.1782C26.8069 22.5077 27.2694 24.0299 27.4717 25.7447Z" fill="#E13D3D"/>
<path d="M81.3387 -1.72327e-05L54.7617 16.2036L55.7738 45.0111L50.5942 45.1931L37.58 26.4288L37.3722 26.4361L38.0468 45.6339L1.72661 52L31.9309 42.4555L30.9783 15.3426L36.2411 15.1577L49.1578 33.9105L49.4071 33.9017L48.7331 14.7188L81.3387 -1.72327e-05Z" fill="#E13D3D"/>
<path d="M65.7576 14.9786L71.7259 25.0655H71.9572L77.9544 14.9786H85.021L75.989 29.7766L85.2233 44.5746H78.0266L71.9572 34.4732H71.7259L65.6565 44.5746H58.4887L67.7519 29.7766L58.6621 14.9786H65.7576Z" fill="#E13D3D"/>
</svg>
